PathFileType	4	(X/Y/Z)	 s04c0203.trc
DataRate	CameraRate	NumFrames	NumMarkers	Units	OrigDataRate	OrigDataStartFrame	OrigNumFrames
200	200	5	50	mm	200	1501	2000
Frame#	Time	racr			lacr			c7			jug			rlel			rdr			llel			ldr			s2			lic			ric			lasi			rasi			rpsi			lpsi			rgt			lgt			rth1			rth2			rth3			rth4			rlfc			rmfc			rsh1			rsh2			rsh3			rsh4			rlmal			rmmal			rcal			rtoe			rmt5			lth1			lth2			lth4			lth3			llfc			lmfc			lsh1			lsh2			lsh3			lsh4			llmal			lmmal			lcal			ltoe			lmt5			SBIKE			LBIKE			RBIKE			
		X1	Y1	Z1	X2	Y2	Z2	X3	Y3	Z3	X4	Y4	Z4	X5	Y5	Z5	X6	Y6	Z6	X7	Y7	Z7	X8	Y8	Z8	X9	Y9	Z9	X10	Y10	Z10	X11	Y11	Z11	X12	Y12	Z12	X13	Y13	Z13	X14	Y14	Z14	X15	Y15	Z15	X16	Y16	Z16	X17	Y17	Z17	X18	Y18	Z18	X19	Y19	Z19	X20	Y20	Z20	X21	Y21	Z21	X22	Y22	Z22	X23	Y23	Z23	X24	Y24	Z24	X25	Y25	Z25	X26	Y26	Z26	X27	Y27	Z27	X28	Y28	Z28	X29	Y29	Z29	X30	Y30	Z30	X31	Y31	Z31	X32	Y32	Z32	X33	Y33	Z33	X34	Y34	Z34	X35	Y35	Z35	X36	Y36	Z36	X37	Y37	Z37	X38	Y38	Z38	X39	Y39	Z39	X40	Y40	Z40	X41	Y41	Z41	X42	Y42	Z42	X43	Y43	Z43	X44	Y44	Z44	X45	Y45	Z45	X46	Y46	Z46	X47	Y47	Z47	X48	Y48	Z48	X49	Y49	Z49	X50	Y50	Z50	
1501	7.5050	528.591857	1325.776552	-78.713675	512.415642	1341.260339	-379.216178	514.088720	1410.477292	-232.084649	441.631717	1269.115121	-233.407111	447.077794	1045.347584	64.496836	687.063533	956.857314	-75.301926	458.615981	1102.660901	-541.978412	667.028867	939.550533	-433.508029	-49.512122	1183.309896	-297.681981	119.538400	1187.021706	-438.200256	75.976809	1203.250648	-121.430037	119.529521	1186.990607	-438.226331	126.447506	1164.939127	-169.391448	-28.491881	1229.576015	-255.571263	-17.371154	1228.076713	-329.881270	37.929827	1164.757891	-102.774059	80.497738	1090.108629	-464.182711	170.294745	1096.706566	-81.858815	257.680666	1083.470043	-85.655961	326.670226	1034.445572	-78.668471	269.578807	1112.888268	-107.024147	453.786595	957.912988	-95.555690	449.151086	936.523645	-211.256492	391.215169	853.959027	-81.880771	369.819848	766.105785	-95.249025	306.907981	707.764917	-107.445705	400.641004	752.461053	-114.922773	247.495510	563.302793	-120.252624	274.819207	569.313666	-202.777823	176.012301	542.440102	-164.334114	467.576776	472.599458	-144.939554	395.948612	459.825209	-91.335127	127.634357	1005.608071	-479.325331	194.017200	949.441561	-479.041857	222.366791	969.038207	-467.046939	224.192836	865.706716	-482.467266	286.811363	716.508937	-458.263961	314.817821	686.241305	-348.829124	239.686378	601.555453	-479.567171	217.579488	519.682247	-457.980088	156.456411	455.241601	-454.701937	244.039735	509.193240	-430.716666	82.609817	328.275108	-446.575740	84.301378	337.205915	-359.701214	5.592355	346.112879	-404.492117	253.644178	171.355831	-406.441141	174.235621	178.205996	-468.536702	-176.864415	933.896141	-279.160229	-3.298559	85.863550	-484.553657	-14.964784	80.563344	-84.078852	
1502	7.5100	528.406038	1325.704403	-78.027327	512.213105	1340.089654	-378.768941	514.147157	1409.815124	-231.667890	441.265961	1268.664143	-232.428113	445.301344	1045.522967	65.222808	685.422003	956.708380	-74.154807	457.881019	1101.689605	-541.732072	666.837296	939.533602	-433.351661	-49.020660	1183.179979	-297.299461	119.679871	1186.836914	-437.834528	77.528379	1202.806181	-119.655277	119.617455	1186.844574	-437.780621	126.771590	1164.296820	-168.045091	-30.796468	1229.249212	-254.773767	-16.802259	1228.150115	-329.497119	38.414370	1163.611484	-102.863377	81.316237	1090.483918	-463.926513	170.598082	1091.437341	-82.384959	258.125608	1077.067058	-86.150312	325.899695	1026.320303	-79.685543	270.682064	1106.404599	-107.187211	451.588772	947.365191	-97.214376	446.516520	926.618331	-212.272528	390.480444	842.146855	-82.339975	370.290495	753.955512	-95.436405	308.203580	694.707750	-107.240848	401.277034	741.048948	-114.785565	250.911071	549.573559	-119.669847	277.456873	556.322634	-202.630666	179.071374	525.958374	-163.128340	472.453791	469.961112	-144.334336	402.282917	453.198295	-89.658647	130.427579	1006.946975	-477.207814	197.885159	952.421230	-477.882190	225.731642	972.499216	-465.707084	229.829244	869.308390	-481.891608	293.852252	720.698545	-457.692783	320.198090	689.893833	-348.294872	244.977427	606.840862	-478.808615	220.625193	525.689325	-457.341513	157.882201	462.902624	-454.430378	246.474493	514.755375	-429.703082	80.210367	338.099855	-446.461349	82.078932	346.717588	-359.622833	3.614571	358.108014	-404.692337	246.076437	175.102991	-406.312430	167.014063	184.872369	-468.472346	-176.745023	933.809861	-279.001207	-3.268431	85.883673	-484.549500	-14.960400	80.518728	-84.058032	
1503	7.5150	528.317051	1325.638050	-77.404460	511.982625	1339.052108	-378.403525	514.250291	1409.199264	-231.424193	440.918363	1268.277058	-231.578903	443.284772	1045.806771	65.592191	683.613409	956.665712	-73.111911	456.814668	1100.692916	-541.419844	666.656454	939.801968	-433.095966	-48.591738	1182.696068	-297.353189	119.918146	1186.548423	-437.411962	77.519675	1201.889442	-119.518177	119.820954	1186.521554	-437.271407	127.197536	1163.470659	-166.536107	-31.108940	1228.810421	-254.266029	-16.427136	1228.074818	-329.217296	38.916102	1161.853126	-102.926804	82.294007	1090.725903	-463.780578	171.581456	1086.657999	-82.417880	258.410700	1069.967855	-86.481054	324.954209	1017.522169	-80.806819	271.718670	1099.258915	-107.252637	448.441346	935.785320	-98.780620	443.046331	914.918662	-213.622591	389.602046	829.476184	-82.551060	370.701416	740.933284	-95.546178	309.478374	680.720606	-106.795414	401.758505	728.499693	-115.099459	253.799750	535.127027	-119.404547	279.482117	542.609619	-202.626173	181.876704	508.679948	-162.230665	477.263377	465.795352	-143.718853	407.894932	445.519602	-88.930248	133.042704	1008.390550	-476.182696	201.585881	955.134079	-476.757319	228.968839	975.747478	-464.472248	235.247532	872.747344	-481.155823	300.528475	724.894318	-456.982519	326.748317	694.430294	-347.623457	250.166934	612.336051	-478.164387	223.611983	531.906699	-456.608215	159.256611	470.991203	-454.255107	248.873558	520.453875	-428.443782	77.748503	348.032584	-446.319933	79.668185	356.531336	-359.435379	1.680725	370.038984	-404.542246	238.650155	179.823248	-406.587608	160.078036	192.284407	-468.470781	-176.590362	933.858753	-279.067464	-3.252775	85.869012	-484.524341	-14.947551	80.466096	-84.044368	
1504	7.5200	528.380774	1325.585309	-76.855612	511.895234	1338.125589	-378.232098	514.428877	1408.660204	-231.238928	440.780614	1267.900599	-230.852344	441.249902	1046.193908	65.644516	681.586183	956.605293	-72.078343	455.637079	1099.769469	-541.229228	666.054404	939.629822	-432.615554	-48.080938	1182.000892	-297.346076	120.264457	1186.153368	-436.943154	77.616428	1201.102725	-119.195439	120.212911	1186.076479	-436.788174	127.729250	1162.450607	-164.871134	-30.830501	1228.752211	-254.217884	-16.052489	1227.719278	-329.228056	39.437882	1159.427252	-103.004899	83.372315	1090.786822	-463.669480	172.613300	1081.196395	-82.495647	258.857852	1062.325724	-86.908526	323.771403	1008.268477	-81.871230	272.573007	1091.638093	-106.666023	445.930686	923.648303	-99.517315	439.517600	903.146388	-214.234774	388.445555	816.118005	-82.693196	370.783152	727.214742	-95.870954	310.491309	666.059872	-106.822159	401.913118	715.433552	-115.694982	256.649676	520.065643	-119.412110	281.909697	528.198440	-202.973720	184.886701	491.280206	-161.486738	481.599627	460.762445	-143.496304	413.527441	437.264364	-88.302557	135.607632	1009.655213	-475.386802	205.096980	957.635596	-475.692684	232.012929	978.716890	-463.240185	240.307066	875.920593	-480.217648	306.945430	729.027103	-456.102357	332.070522	699.291268	-346.499630	255.238962	617.808901	-477.434302	226.466093	538.152172	-455.763639	160.605619	478.609558	-453.593476	251.106005	526.250953	-427.245907	75.327925	358.082407	-446.056042	77.249201	366.391435	-359.147983	-0.267148	381.774019	-404.321973	231.826764	185.495479	-406.562764	153.610416	200.206843	-468.437100	-176.451134	933.865406	-279.030191	-3.233297	85.855288	-484.506011	-14.918069	80.464093	-84.037091	
1505	7.5250	528.553360	1325.452509	-76.522127	511.839770	1337.410653	-378.212917	514.678367	1408.006762	-231.220204	440.736312	1267.400998	-230.274680	438.828572	1046.671735	65.647222	679.477489	956.539252	-71.180914	454.431366	1098.837613	-540.697593	665.403590	939.665676	-432.435357	-47.415469	1180.910152	-297.801611	120.730031	1185.648884	-436.438696	77.597798	1199.837601	-119.003433	120.749511	1185.530574	-436.324658	128.370641	1161.226629	-163.056810	-30.567012	1228.218038	-254.053801	-15.913706	1226.683468	-329.429773	39.985836	1156.537264	-103.002503	84.647022	1090.711306	-463.610877	173.126592	1075.237586	-81.764941	258.738764	1054.629719	-85.709621	322.614103	998.612783	-82.734317	273.337959	1083.531589	-106.160194	443.199445	910.971906	-101.230046	435.845559	890.736761	-215.152197	386.828531	802.090047	-82.966820	370.506292	713.061984	-96.561920	311.078863	650.921653	-107.332293	401.648068	701.904182	-116.668895	259.120433	505.237157	-119.197775	282.920581	514.510223	-202.960585	187.457236	474.338801	-160.827510	485.360353	454.858951	-143.298859	418.430242	428.693918	-87.950236	138.121015	1010.494685	-474.486229	208.365771	959.856187	-474.699475	234.876681	981.358710	-462.152420	244.968071	878.725898	-479.207474	313.048945	733.197660	-455.145622	337.348616	702.799055	-345.729051	260.039842	623.229405	-476.522292	229.053092	544.384610	-454.721074	161.671671	486.643142	-452.901010	253.141633	532.031809	-425.988227	72.941298	368.395197	-445.668369	74.867419	376.282794	-358.693395	-2.344185	393.481536	-403.946338	225.484775	192.104280	-406.618764	147.598276	208.619546	-468.419989	-176.065968	933.871412	-279.361716	-3.214932	85.822672	-484.523411	-14.913338	80.432034	-84.039530	
